<svg xmlns="http://www.w3.org/2000/svg" style="display:none">
  <symbol id="i-car" viewBox="0 0 64 64" fill="none" stroke="currentColor" stroke-width="2.5" stroke-linecap="round" stroke-linejoin="round">
    <path d="M10 38 L14 24 Q15 21 18 21 L46 21 Q49 21 50 24 L54 38"/>
    <rect x="8" y="38" width="48" height="10" rx="3"/>
    <circle cx="18" cy="48" r="4"/>
    <circle cx="46" cy="48" r="4"/>
    <path d="M44 14 l3 -3 M50 18 l4 -2 M52 24 l5 0" opacity="0.7"/>
  </symbol>

  <symbol id="i-shield" viewBox="0 0 64 64" fill="none" stroke="currentColor" stroke-width="2.5" stroke-linecap="round" stroke-linejoin="round">
    <path d="M32 6 L52 14 L52 32 Q52 48 32 58 Q12 48 12 32 L12 14 Z"/>
    <path d="M24 32 l6 6 l12 -14"/>
  </symbol>

  <symbol id="i-drop" viewBox="0 0 64 64" fill="none" stroke="currentColor" stroke-width="2.5" stroke-linecap="round" stroke-linejoin="round">
    <path d="M32 6 C20 22 14 32 14 40 a18 18 0 0 0 36 0 c0 -8 -6 -18 -18 -34z"/>
    <path d="M22 42 q4 6 10 4" opacity="0.7"/>
  </symbol>

  <symbol id="i-diamond" viewBox="0 0 64 64" fill="none" stroke="currentColor" stroke-width="2.5" stroke-linecap="round" stroke-linejoin="round">
    <path d="M16 24 L32 8 L48 24 L32 56 Z"/>
    <path d="M16 24 L48 24 M24 24 L32 8 M40 24 L32 8 M24 24 L32 56 M40 24 L32 56"/>
  </symbol>

  <symbol id="i-polisher" viewBox="0 0 64 64" fill="none" stroke="currentColor" stroke-width="2.5" stroke-linecap="round" stroke-linejoin="round">
    <rect x="14" y="18" width="22" height="14" rx="2"/>
    <path d="M36 22 L52 22 L52 28 L36 28"/>
    <circle cx="25" cy="44" r="10"/>
    <circle cx="25" cy="44" r="4"/>
    <path d="M48 14 l4 -4 M52 22 l6 0 M48 32 l4 4" opacity="0.7"/>
  </symbol>

  <symbol id="i-spray" viewBox="0 0 64 64" fill="none" stroke="currentColor" stroke-width="2.5" stroke-linecap="round" stroke-linejoin="round">
    <path d="M22 22 L22 56 L42 56 L42 22 Z"/>
    <path d="M26 22 L26 14 L38 14 L38 22"/>
    <path d="M38 18 L46 18 L46 12"/>
    <path d="M52 8 l3 -3 M54 14 l5 0 M50 6 l1 -4" opacity="0.7"/>
    <path d="M26 32 L38 32" />
  </symbol>

  <symbol id="i-foam" viewBox="0 0 64 64" fill="none" stroke="currentColor" stroke-width="2.5" stroke-linecap="round" stroke-linejoin="round">
    <circle cx="20" cy="36" r="8"/>
    <circle cx="32" cy="28" r="9"/>
    <circle cx="44" cy="36" r="8"/>
    <circle cx="32" cy="44" r="6"/>
    <path d="M14 50 L50 50" />
  </symbol>

  <symbol id="i-wheel" viewBox="0 0 64 64" fill="none" stroke="currentColor" stroke-width="2.5" stroke-linecap="round" stroke-linejoin="round">
    <circle cx="32" cy="32" r="22"/>
    <circle cx="32" cy="32" r="6"/>
    <path d="M32 10 L32 26 M32 38 L32 54 M10 32 L26 32 M38 32 L54 32 M16 16 L27 27 M37 37 L48 48 M48 16 L37 27 M27 37 L16 48"/>
  </symbol>

  <symbol id="i-seat" viewBox="0 0 64 64" fill="none" stroke="currentColor" stroke-width="2.5" stroke-linecap="round" stroke-linejoin="round">
    <path d="M18 10 Q18 6 22 6 L34 6 Q38 6 38 10 L38 34 L18 34 Z"/>
    <path d="M14 34 L42 34 Q46 34 46 38 L46 52 Q46 56 42 56 L18 56 Q14 56 14 52 Z"/>
    <path d="M46 38 L54 42 L54 54"/>
  </symbol>

  <symbol id="i-heat" viewBox="0 0 64 64" fill="none" stroke="currentColor" stroke-width="2.5" stroke-linecap="round" stroke-linejoin="round">
    <path d="M18 12 q-4 6 0 12 q4 6 0 12" />
    <path d="M32 12 q-4 6 0 12 q4 6 0 12" />
    <path d="M46 12 q-4 6 0 12 q4 6 0 12" />
    <rect x="10" y="42" width="44" height="12" rx="2"/>
  </symbol>

  <symbol id="i-timer" viewBox="0 0 64 64" fill="none" stroke="currentColor" stroke-width="2.5" stroke-linecap="round" stroke-linejoin="round">
    <circle cx="32" cy="36" r="22"/>
    <path d="M32 36 L32 22 M32 36 L42 36"/>
    <path d="M26 8 L38 8 M50 16 l4 -4" />
  </symbol>

  <symbol id="i-leaf" viewBox="0 0 64 64" fill="none" stroke="currentColor" stroke-width="2.5" stroke-linecap="round" stroke-linejoin="round">
    <path d="M50 12 C50 36 38 52 14 52 C14 28 26 12 50 12z"/>
    <path d="M14 52 L36 30"/>
  </symbol>

  <symbol id="i-engine" viewBox="0 0 64 64" fill="none" stroke="currentColor" stroke-width="2.5" stroke-linecap="round" stroke-linejoin="round">
    <path d="M14 28 L14 46 Q14 50 18 50 L40 50 Q44 50 44 46 L44 40 L52 40 L52 30 L44 30 L44 24 Q44 20 40 20 L26 20 L22 16 L18 16 L18 20"/>
    <path d="M26 14 L34 14" />
  </symbol>

  <symbol id="i-bike" viewBox="0 0 64 64" fill="none" stroke="currentColor" stroke-width="2.5" stroke-linecap="round" stroke-linejoin="round">
    <circle cx="14" cy="46" r="8"/>
    <circle cx="50" cy="46" r="8"/>
    <path d="M22 46 L34 30 L42 30 L48 42"/>
    <path d="M28 30 L40 30 L36 22 L30 22"/>
  </symbol>

  <symbol id="i-wa" viewBox="0 0 32 32" fill="currentColor">
    <path d="M19.11 17.205c-.372 0-1.088 1.39-1.518 1.39a.63.63 0 0 1-.315-.1c-.802-.402-1.504-.817-2.163-1.447-.545-.516-1.146-1.29-1.46-1.963a.426.426 0 0 1-.073-.215c0-.33.99-.945.99-1.49 0-.143-.73-2.09-.832-2.335-.143-.372-.214-.487-.6-.487-.187 0-.36-.043-.53-.043-.302 0-.53.115-.746.315-.688.645-1.032 1.318-1.045 2.247v.13c-.014.99.472 1.977 1.017 2.78 1.39 2.035 2.92 3.71 5.18 4.728.708.317 2.504 1.087 3.27 1.087.387 0 .684-.085.992-.215.486-.215 1.16-.93 1.376-1.418.043-.116.043-.215.043-.331 0-.087-.014-.143-.027-.215-.105-.218-.105-.218-.488-.43z"/>
    <path d="M16.11 0C7.213 0 .052 7.16.052 16.058a16.04 16.04 0 0 0 2.43 8.486L0 32l7.74-2.43A16.046 16.046 0 0 0 32 16.058C32 7.16 24.84 0 16.11 0zm0 28.9c-2.62 0-5.184-.78-7.354-2.207L7.927 26.2l-4.6 1.444 1.476-4.49-.5-.81a13.16 13.16 0 0 1-2.05-7.067c0-7.282 5.92-13.202 13.202-13.202 7.282 0 13.202 5.92 13.202 13.202S23.39 28.9 16.11 28.9z"/>
  </symbol>
</svg>
